<svg xmlns="http://www.w3.org/2000/svg" xmlns:xlink="http://www.w3.org/1999/xlink" width="1366" zoomAndPan="magnify" viewBox="0 0 1024.5 1574.249936" height="768" preserveAspectRatio="xMidYMid meet" version="1.0"><path fill="#ffbd59" d="M 486.992188 309.707031 C 509.9375 322.546875 492.84375 336.015625 485.699219 310.726562 C 492.84375 336.035156 471.226562 333.484375 484.066406 310.539062 C 471.226562 333.484375 457.753906 316.390625 483.046875 309.246094 C 457.738281 316.390625 460.289062 294.773438 483.234375 307.613281 C 460.289062 294.773438 477.382812 281.300781 484.527344 306.59375 C 477.382812 281.285156 499 283.835938 486.160156 306.78125 C 499 283.835938 512.472656 300.929688 487.179688 308.074219 C 512.488281 300.929688 509.9375 322.546875 486.992188 309.707031 Z M 486.992188 309.707031 " fill-opacity="1" fill-rule="nonzero"/><path fill="#fffed2" d="M 488.320312 308.667969 C 488.320312 309.089844 488.238281 309.5 488.074219 309.890625 C 487.914062 310.28125 487.683594 310.628906 487.382812 310.929688 C 487.082031 311.230469 486.738281 311.460938 486.34375 311.621094 C 485.953125 311.785156 485.546875 311.867188 485.121094 311.867188 C 484.699219 311.867188 484.289062 311.785156 483.898438 311.621094 C 483.507812 311.460938 483.160156 311.230469 482.859375 310.929688 C 482.5625 310.628906 482.328125 310.28125 482.167969 309.890625 C 482.003906 309.5 481.925781 309.089844 481.925781 308.667969 C 481.925781 308.242188 482.003906 307.835938 482.167969 307.445312 C 482.328125 307.050781 482.5625 306.707031 482.859375 306.40625 C 483.160156 306.105469 483.507812 305.875 483.898438 305.714844 C 484.289062 305.550781 484.699219 305.46875 485.121094 305.46875 C 485.546875 305.46875 485.953125 305.550781 486.34375 305.714844 C 486.738281 305.875 487.082031 306.105469 487.382812 306.40625 C 487.683594 306.707031 487.914062 307.050781 488.074219 307.445312 C 488.238281 307.835938 488.320312 308.242188 488.320312 308.667969 Z M 488.320312 308.667969 " fill-opacity="1" fill-rule="nonzero"/></svg>